# xmcd
#
# Track frame offsets:
#	150
#	15676
#	29730
#	48743
#	59020
#	81833
#	97694
#	115555
#	138284
#
# Disc length: 2073 seconds
#
# Revision: 0
# Processed by: cddbd v1.5.2PL0 Copyright (c) Steve Scherf et al.
# Submitted via: EasyCDDAExtractor 12.0.1.1
#
DISCID=72081709
DTITLE=Niko Riippa - Flying circus
DYEAR=2009
DGENRE=Blues
TTITLE0=Flying circus
TTITLE1=Big red
TTITLE2=Grand ma
TTITLE3=Into the world stomp
TTITLE4=Done quittin'
TTITLE5=Things you do when you're not alone
TTITLE6=End of an era
TTITLE7=Icebreaker
TTITLE8=Bec a gaz et guitare
EXTD=
EXTT0=
EXTT1=
EXTT2=
EXTT3=
EXTT4=
EXTT5=
EXTT6=
EXTT7=
EXTT8=
PLAYORDER=
